<?xml version="1.0" encoding="UTF-8" standalone="no"?>
<!DOCTYPE svg PUBLIC "-//W3C//DTD SVG 1.1//EN" "http://www.w3.org/Graphics/SVG/1.1/DTD/svg11.dtd">
<svg width="100%" height="100%" viewBox="0 0 225 80" version="1.1" xmlns="http://www.w3.org/2000/svg" xmlns:xlink="http://www.w3.org/1999/xlink" xml:space="preserve" xmlns:serif="http://www.serif.com/" style="fill-rule:evenodd;clip-rule:evenodd;stroke-linejoin:round;stroke-miterlimit:2;">
    <g id="path1966" transform="matrix(3.54331e-05,0,0,3.54331e-05,-359.905,-17.9603)">
        <path d="M1.61832e+07,506880L1.5364e+07,2.18038e+06L1.56886e+07,2.18038e+06L1.65e+07,507400L1.65e+07,506880L1.61832e+07,506880ZM1.44474e+07,506880L1.36287e+07,2.18038e+06L1.38809e+07,2.18038e+06L1.46923e+07,506880L1.44474e+07,506880ZM1.18436e+07,506880L1.10249e+07,2.18038e+06L1.12771e+07,2.18038e+06L1.2089e+07,506880L1.18436e+07,506880ZM1.09761e+07,506880L1.01573e+07,2.18038e+06L1.04096e+07,2.18038e+06L1.1221e+07,506880L1.09761e+07,506880ZM1.33062e+07,1.06606e+06L1.24872e+07,2.7393e+06L1.27396e+07,2.7393e+06L1.35512e+07,1.06606e+06L1.33062e+07,1.06606e+06ZM1.50417e+07,1.06606e+06L1.42227e+07,2.7393e+06L1.44749e+07,2.7393e+06L1.52866e+07,1.06606e+06L1.50417e+07,1.06606e+06ZM1.24381e+07,1.06606e+06L1.16194e+07,2.7393e+06L1.18716e+07,2.7393e+06L1.26833e+07,1.06606e+06L1.24381e+07,1.06606e+06Z" style="fill:white;"/>
    </g>
</svg>
